 <svg  version="1.0" xmlns="http://www.w3.org/2000/svg"  width="178.000000pt" height="167.000000pt" viewBox="0 0 178.000000 167.000000"  preserveAspectRatio="xMidYMid meet">  <g transform="translate(0.000000,167.000000) scale(0.100000,-0.100000)" fill="#ffd22e" stroke="none"> <path d="M1480 1594 c-11 -13 -10 -18 7 -35 19 -19 21 -19 37 -4 16 16 16 19 0 36 -21 23 -28 24 -44 3z"/> <path d="M1620 1602 c0 -5 11 -19 25 -32 24 -22 25 -22 25 -4 0 11 -5 25 -12 32 -14 14 -38 16 -38 4z"/> <path d="M1570 1565 c-11 -13 -9 -20 10 -40 13 -14 30 -25 37 -25 25 0 26 30 3 56 -27 28 -33 29 -50 9z"/> <path d="M1405 1560 c-4 -6 5 -24 19 -40 23 -28 26 -29 41 -14 15 15 14 18 -6 40 -24 26 -44 31 -54 14z"/> <path d="M1327 1522 c-23 -25 -22 -31 10 -64 33 -34 43 -35 67 -1 l19 26 -32 29 c-37 33 -43 34 -64 10z"/> <path d="M1675 1530 c-7 -12 11 -40 26 -40 14 0 10 26 -5 39 -10 9 -16 9 -21 1z"/> <path d="M849 1377 c-143 -265 -211 -402 -190 -379 12 12 26 22 31 22 6 0 10 8 10 18 0 19 39 62 56 62 5 0 15 14 21 31 7 19 23 34 42 42 16 6 34 21 40 34 6 13 25 29 41 35 l30 10 0 134 c0 74 -1 134 -2 134 -2 0 -37 -64 -79 -143z m32 -78 c-14 -38 -36 -53 -51 -34 -10 12 -10 15 2 15 7 0 19 14 26 32 8 22 15 29 22 22 7 -7 8 -19 1 -35z"/> <path d="M1503 1504 c-4 -10 5 -27 25 -46 32 -33 62 -33 62 0 0 23 -40 62 -63 62 -10 0 -20 -7 -24 -16z"/> <path d="M1638 1476 c-23 -17 -23 -25 4 -47 16 -14 24 -16 35 -8 18 15 16 33 -4 52 -15 13 -21 13 -35 3z"/> <path d="M1437 1452 c-23 -26 -21 -41 10 -74 31 -33 68 -36 83 -9 14 27 14 26 -21 66 -35 40 -49 43 -72 17z m45 -14 c-31 -31 2 -74 35 -47 14 12 16 12 11 -1 -8 -24 -55 -25 -68 0 -14 26 -4 60 18 60 12 0 13 -3 4 -12z"/> <path d="M1698 1401 c-39 -44 -125 -114 -229 -188 -149 -107 -407 -300 -462 -346 -12 -10 21 5 73 32 52 27 165 82 250 121 173 79 181 86 304 250 69 92 140 200 132 200 -3 0 -33 -31 -68 -69z m-203 -221 c4 -6 2 -9 -3 -8 -10 3 -72 -60 -72 -74 0 -5 -4 -7 -9 -4 -4 3 -19 -3 -31 -14 -51 -44 -31 -16 32 45 71 69 73 71 83 55z"/> <path d="M1252 1448 c-19 -19 -14 -39 15 -70 29 -30 43 -35 43 -16 0 6 7 20 17 30 15 17 15 20 -7 43 -26 27 -49 32 -68 13z"/> <path d="M716 1293 c-213 -237 -365 -441 -426 -577 -38 -83 -56 -209 -46 -319 l8 -76 36 38 c20 20 47 44 59 52 13 9 38 56 62 117 88 220 312 690 400 840 17 28 29 52 26 52 -2 0 -55 -57 -119 -127z m-98 -203 c8 -13 8 -20 2 -20 -12 0 -125 -228 -122 -246 1 -5 -6 -19 -15 -30 -10 -11 -19 -25 -20 -32 -2 -7 -4 -18 -5 -24 -2 -7 -6 -15 -9 -18 -3 -3 -21 -43 -40 -90 -19 -47 -37 -87 -40 -90 -3 -3 -5 -13 -3 -23 1 -9 -2 -15 -7 -11 -5 3 -10 -3 -10 -13 -3 -41 -5 -46 -18 -51 -9 -3 -11 0 -6 9 5 8 -3 4 -17 -9 l-24 -22 -2 47 c-1 32 7 66 23 103 13 30 24 51 25 47 0 -5 7 -2 15 7 19 19 34 82 16 72 -6 -4 -9 -12 -5 -18 8 -13 -46 -69 -59 -61 -6 4 -7 1 -2 -7 4 -7 2 -16 -6 -20 -23 -15 -30 0 -10 22 11 11 17 27 14 35 -4 11 -1 14 8 11 31 -10 57 50 35 81 -8 11 -8 13 1 7 9 -5 19 6 30 31 10 20 26 46 36 56 10 10 15 22 12 27 -3 4 -1 10 3 12 4 1 33 37 63 78 31 41 63 81 72 89 9 7 14 17 11 22 -5 8 18 14 41 9 6 -1 4 4 -2 11 -7 7 -13 17 -13 21 0 15 15 8 28 -12z"/> <path d="M1586 1405 c-22 -17 -14 -48 11 -43 19 4 30 35 16 48 -4 5 -16 2 -27 -5z"/> <path d="M1130 1395 c-6 -8 -10 -21 -8 -30 2 -13 8 -10 26 14 16 23 19 31 9 31 -8 0 -20 -7 -27 -15z"/> <path d="M1176 1371 c-20 -22 -13 -42 23 -75 20 -19 21 -19 48 9 l28 27 -33 29 c-38 34 -43 35 -66 10z"/> <path d="M1350 1370 c-27 -27 -26 -35 15 -75 39 -40 42 -41 73 -19 30 21 28 40 -12 80 -39 39 -49 41 -76 14z"/> <path d="M1046 1331 c-15 -16 -16 -23 -5 -42 12 -23 12 -23 19 -3 4 11 15 26 24 33 9 7 13 17 10 22 -9 15 -30 10 -48 -10z"/> <path d="M1523 1329 c-18 -9 -30 -19 -26 -23 12 -12 54 -6 59 9 10 26 0 30 -33 14z"/> <path d="M1102 1298 c-18 -18 -14 -42 11 -65 l22 -20 32 22 32 22 -28 27 c-30 28 -50 33 -69 14z"/> <path d="M1266 1278 c-18 -25 -8 -48 36 -81 21 -15 30 -17 47 -8 29 16 26 49 -6 83 -32 34 -57 36 -77 6z"/> <path d="M960 1261 c-7 -15 -5 -25 10 -43 15 -17 19 -19 20 -7 0 9 9 24 20 34 16 14 17 20 8 27 -22 13 -47 9 -58 -11z"/> <path d="M1026 1218 c-16 -22 -10 -44 17 -66 16 -14 77 5 77 23 0 15 -53 65 -67 65 -7 0 -19 -10 -27 -22z"/> <path d="M1165 1196 c-19 -29 -12 -46 33 -90 l31 -28 30 21 c40 28 39 49 -2 89 -39 38 -71 41 -92 8z"/> <path d="M885 1189 c-4 -13 -2 -27 7 -35 12 -12 17 -11 37 10 26 28 21 46 -14 46 -15 0 -26 -7 -30 -21z"/> <path d="M1734 1171 c-5 -5 -79 -39 -164 -76 -444 -193 -920 -449 -920 -495 0 -27 27 -45 45 -30 8 7 12 16 9 21 -8 13 -34 11 -34 -2 0 -6 7 -8 18 -4 14 5 15 4 5 -6 -10 -10 -16 -10 -25 -1 -9 9 -9 16 4 29 15 14 19 14 35 2 16 -12 16 -11 -1 9 -22 25 -6 30 19 6 18 -18 16 -60 -3 -57 -6 2 -12 -1 -12 -6 0 -5 -9 -11 -21 -14 -26 -7 -61 26 -52 50 9 22 -59 -26 -157 -113 -41 -37 -98 -84 -127 -106 -30 -23 -56 -52 -62 -70 -14 -40 -14 -89 0 -86 6 2 18 -8 27 -22 l16 -25 -22 19 c-17 15 -22 16 -22 4 0 -8 6 -23 14 -34 14 -19 15 -19 38 4 30 27 101 30 168 6 45 -16 47 -16 95 9 94 47 319 225 575 453 166 148 526 481 554 513 19 21 19 39 0 22z m-221 -172 c-78 -78 -123 -106 -89 -54 9 14 12 25 6 25 -17 0 -29 -43 -18 -64 6 -10 6 -16 1 -13 -4 3 -55 -42 -113 -98 -76 -76 -108 -101 -117 -94 -8 7 -17 5 -30 -8 -11 -11 -25 -17 -33 -15 -7 3 -10 0 -6 -6 9 -15 46 -11 46 5 0 6 4 14 9 17 12 8 9 -26 -4 -40 -5 -7 -13 -10 -17 -8 -4 2 -10 -5 -13 -17 -4 -11 -9 -19 -11 -16 -7 6 -69 -55 -66 -65 1 -4 -2 -8 -8 -8 -15 0 -12 17 6 35 9 9 14 19 10 22 -9 9 -87 -68 -80 -79 3 -4 -2 -8 -10 -8 -8 0 -17 -9 -21 -20 -3 -11 -9 -19 -13 -17 -4 1 -21 -11 -38 -26 -17 -15 -59 -47 -92 -71 -34 -24 -59 -46 -55 -50 3 -3 -1 -6 -9 -6 -8 0 -27 -11 -42 -25 -15 -14 -31 -25 -35 -25 -4 0 -18 -9 -31 -20 -13 -11 -29 -20 -37 -20 -7 0 -13 -4 -13 -9 0 -13 -36 -20 -51 -10 -8 4 -19 3 -27 -3 -10 -9 -12 -8 -10 3 2 11 -13 14 -79 14 -94 0 -112 12 -91 62 6 15 10 33 9 38 -2 6 1 7 5 3 8 -9 92 58 147 116 20 22 37 37 37 33 0 -4 8 1 18 10 11 10 17 22 14 27 -3 5 1 6 8 1 10 -6 9 -11 -5 -22 -11 -7 -14 -13 -8 -13 17 0 35 28 27 42 -4 7 -4 10 1 6 4 -4 14 -3 21 3 10 8 23 8 47 0 64 -22 123 24 111 85 -5 27 -2 33 15 39 12 3 21 13 21 21 0 8 5 12 10 9 6 -4 30 5 53 18 23 14 74 41 112 62 39 20 77 43 87 51 11 11 18 12 23 4 5 -8 18 -1 38 20 34 34 75 61 62 40 -5 -8 -3 -11 6 -8 8 3 13 11 11 18 -2 8 3 10 13 6 10 -3 27 2 41 13 14 11 47 27 75 36 27 9 49 21 49 26 0 6 4 8 9 4 5 -3 12 -1 16 5 4 6 16 5 35 -5 21 -11 31 -12 36 -3 4 7 3 8 -4 4 -7 -4 -12 -3 -12 2 0 5 11 15 25 22 14 7 25 19 25 27 0 7 6 13 13 13 6 1 21 12 32 25 10 13 23 21 27 18 5 -2 -26 -40 -69 -84z"/> <path d="M1086 651 c-4 -6 -4 -11 1 -11 4 0 0 -5 -10 -11 -19 -11 -14 -29 7 -29 16 0 27 33 16 50 -5 9 -9 9 -14 1z"/> <path d="M952 1148 c-17 -17 -15 -29 12 -60 17 -18 30 -25 45 -21 32 8 37 41 10 69 -25 26 -48 31 -67 12z"/> <path d="M815 1130 c-17 -18 -17 -21 -1 -45 l17 -26 26 32 c26 30 26 32 8 45 -25 18 -29 18 -50 -6z"/> <path d="M1080 1110 c-11 -11 -20 -24 -20 -30 0 -14 62 -82 69 -75 3 4 -5 15 -19 25 -20 15 -21 20 -8 20 9 0 23 -9 30 -19 13 -18 14 -18 43 5 l30 25 -37 34 c-43 40 -60 43 -88 15z"/> <path d="M882 1078 c-7 -7 -12 -19 -12 -27 0 -15 48 -71 61 -71 4 0 12 14 18 32 10 27 8 34 -11 55 -24 26 -38 29 -56 11z"/> <path d="M740 1049 c-9 -16 -8 -24 5 -39 16 -18 18 -18 40 8 17 19 20 30 13 40 -16 19 -46 14 -58 -9z"/> <path d="M991 1021 c-27 -27 -26 -35 7 -71 26 -30 28 -30 50 -14 22 15 22 17 7 34 -9 10 -15 29 -13 41 4 31 -24 37 -51 10z"/> <path d="M1063 1000 c1 -15 9 -26 21 -28 11 -2 17 1 14 8 -2 6 -8 11 -13 10 -5 -1 -13 7 -17 17 -6 14 -7 13 -5 -7z"/> <path d="M802 998 c-18 -18 -15 -32 16 -61 31 -30 42 -34 42 -13 0 7 7 19 15 26 14 12 13 16 -6 37 -25 25 -49 29 -67 11z"/> <path d="M675 979 c-4 -5 -4 -22 0 -36 l6 -26 29 28 c16 16 27 32 24 37 -7 12 -52 10 -59 -3z"/> <path d="M900 930 c-26 -26 -25 -42 5 -70 l25 -24 33 30 c17 16 34 31 37 32 8 6 -50 52 -66 52 -8 0 -23 -9 -34 -20z"/> <path d="M732 928 c-18 -18 -14 -42 11 -66 l22 -21 30 26 29 26 -28 23 c-30 27 -46 30 -64 12z"/> <path d="M616 901 c-12 -13 -15 -25 -9 -34 7 -13 13 -11 37 10 23 20 26 27 15 34 -20 12 -24 11 -43 -10z"/> <path d="M662 854 c-28 -19 -28 -35 1 -62 22 -21 25 -21 55 -6 38 18 39 24 10 51 -35 31 -43 33 -66 17z"/> <path d="M810 840 c-24 -24 -25 -38 -4 -61 15 -16 19 -17 43 -4 15 7 34 21 41 30 12 15 11 19 -10 36 -32 24 -45 24 -70 -1z"/> <path d="M582 778 c-18 -18 -15 -39 9 -64 18 -19 25 -21 50 -12 35 12 37 37 6 66 -26 25 -47 28 -65 10z"/> <path d="M720 750 c-20 -20 -26 -41 -14 -53 3 -3 24 6 45 20 31 20 37 29 28 39 -16 19 -36 17 -59 -6z"/> <path d="M510 689 c-12 -28 -11 -33 12 -55 29 -29 53 -24 63 14 5 21 1 31 -20 49 -34 30 -40 29 -55 -8z"/> <path d="M642 673 c-7 -2 -17 -14 -23 -25 -9 -17 -8 -18 8 -9 37 20 59 40 43 40 -8 0 -21 -3 -28 -6z"/> <path d="M467 590 c-14 -37 -14 -41 1 -49 13 -7 20 -1 33 25 15 31 15 35 -1 49 -15 14 -18 12 -33 -25z"/> <path d="M213 298 c-9 -20 -7 -29 13 -53 20 -26 24 -27 23 -10 0 11 -6 35 -13 54 l-12 33 -11 -24z"/> <path d="M144 205 l-40 -41 12 -44 c6 -25 17 -58 23 -73 l11 -28 67 51 c38 29 68 55 68 59 0 4 -22 32 -50 62 l-50 54 -41 -40z m56 -100 c-21 -23 -50 -24 -50 -3 0 6 6 5 15 -2 19 -16 20 -2 1 19 -10 12 -11 23 -4 40 l9 25 25 -28 26 -27 -22 -24z"/> <path d="M47 126 l-27 -22 56 -54 c36 -35 52 -46 43 -30 -7 14 -20 48 -29 76 l-15 52 -28 -22z"/> </g> </svg> 